:SAMPLES-PER-SECOND 30
:FULLY-SPECIFIED
:DEGREES
859
root  7.94347 39.1537 10.5585 169.534 61.4187 168.051
RightUpLeg  -11.2389 -34.9326 -20.8105
RightLeg  27.0253 -14.6391 -8.18769
RightFoot  -0.865856 -0.838715 9.06521
RightToes  0.000481921 0.542163 -0.142578
Spine  28.7853 1.68007 12.8903
Spine1  2.14248 8.48833 -16.5348
HEad  -7.45244 -28.6514 10.219
LeftShoulder1  6.66685 -12.7555 -34.9402
LeftArm  -9.86945 -4.56444 -31.4824
LeftForeArm  -172.096 -59.844 -164.49
LeftHand  -0.25398 0.0180481 5.50724
RightShoulder  0.459682 3.18016 -1.81875
RightArm  -49.5923 40.9457 -8.03953
RightForeArm  31.7001 5.90691 -0.945161
RightHand  -2.58033 14.186 -15.7206
LeftUpLeg  -19.5014 10.3668 -8.04359
LeftLeg  17.844 -8.89299 -2.93526
LeftFoot  0.729247 0.448855 -4.2882
LeftToes  1.06245e-005 4.65869e-005 -8.65517e-006
860
root  8.03153 39.0637 10.7422 168.549 61.3193 167.32
RightUpLeg  -11.5142 -35.7062 -21.2491
RightLeg  28.4925 -13.6109 -8.10497
RightFoot  -1.88947 -0.740198 8.78109
RightToes  0.000481921 0.542163 -0.142578
Spine  28.5725 2.11246 11.9803
Spine1  2.32153 8.55674 -15.764
HEad  -5.9749 -27.0455 9.13004
LeftShoulder1  6.4585 -12.3331 -34.7255
LeftArm  -11.3945 -1.89763 -32.0676
LeftForeArm  -171.082 -58.4705 -165.377
LeftHand  -0.25398 0.0180481 5.50724
RightShoulder  0.396528 2.78967 -2.30976
RightArm  -54.7663 49.104 -6.90022
RightForeArm  31.8041 15.0297 0.960692
RightHand  -2.40573 13.2116 -15.44
LeftUpLeg  -19.5456 10.5588 -8.01321
LeftLeg  18.6893 -8.96989 -3.03715
LeftFoot  0.0758069 0.505099 -5.05604
LeftToes  1.06245e-005 4.65869e-005 -8.65517e-006
861
root  8.24369 39.0477 10.8894 169.593 59.4915 169.117
RightUpLeg  -9.59661 -37.6874 -21.6894
RightLeg  28.8453 -13.192 -7.97907
RightFoot  -2.59818 -0.675713 8.59206
RightToes  0.000481921 0.542163 -0.142578
Spine  27.2828 2.23843 10.827
Spine1  3.40224 7.764 -12.8307
HEad  -4.60313 -25.8421 9.17627
LeftShoulder1  6.57317 -12.3125 -35.4837
LeftArm  -12.0972 1.11409 -32.741
LeftForeArm  -170.498 -57.385 -166.019
LeftHand  -0.25398 0.0180481 5.50724
RightShoulder  0.667455 2.9015 2.19793
RightArm  -52.3827 53.1814 1.00218
RightForeArm  33.0267 39.6218 7.45668
RightHand  -1.82572 11.1172 -13.2108
LeftUpLeg  -19.0832 8.59989 -7.01359
LeftLeg  19.436 -8.83477 -3.12551
LeftFoot  -0.416512 0.52334 -5.4565
LeftToes  1.06245e-005 4.65869e-005 -8.65517e-006
862
root  8.51773 39.1088 11.0168 170.956 57.5451 171.731
RightUpLeg  -6.50693 -38.7454 -21.873
RightLeg  28.2231 -13.763 -8.10395
RightFoot  -2.81304 -0.655486 8.51819
RightToes  0.000481921 0.542163 -0.142578
Spine  25.9568 2.23555 10.4771
Spine1  4.85152 7.23814 -10.6826
HEad  -3.51368 -25.8767 10.1136
LeftShoulder1  6.86783 -12.5883 -36.5781
LeftArm  -11.7832 3.21244 -32.7362
LeftForeArm  -171.201 -57.2537 -166.03
LeftHand  -0.25398 0.0180481 5.50724
RightShoulder  1.39313 5.07049 8.75685
RightArm  -39.4634 51.3034 15.5771
RightForeArm  52.8955 67.3801 23.9089
RightHand  -0.893857 7.64365 -8.31865
LeftUpLeg  -18.0205 6.42316 -5.47447
LeftLeg  19.8468 -8.73985 -3.16163
LeftFoot  -0.689377 0.530577 -5.63865
LeftToes  1.06245e-005 4.65869e-005 -8.65517e-006
863
root  8.84337 39.2325 11.1215 171.719 56.3401 173.614
RightUpLeg  -3.58043 -38.6951 -21.7803
RightLeg  26.9307 -14.7954 -8.24407
RightFoot  -2.82913 -0.66408 8.64728
RightToes  0.000481921 0.542163 -0.142578
Spine  24.8981 2.5556 10.5513
Spine1  5.85125 7.41317 -9.82981
HEad  -2.85784 -27.0827 11.2173
LeftShoulder1  7.009 -12.6068 -37.3799
LeftArm  -10.3487 4.18804 -32.4075
LeftForeArm  -171.087 -57.7184 -165.792
LeftHand  -0.25398 0.0180481 5.50724
RightShoulder  2.76129 8.07779 17.1455
RightArm  -26.7235 43.9326 28.3451
RightForeArm  144.7 81.4259 105.237
RightHand  -0.239802 5.00739 -3.16439
LeftUpLeg  -16.6078 5.18921 -4.09946
LeftLeg  19.5415 -8.87901 -3.16251
LeftFoot  -0.749574 0.548688 -5.83725
LeftToes  1.06245e-005 4.65869e-005 -8.65517e-006
864
root  9.19619 39.3627 11.1814 172.148 55.3457 174.732
RightUpLeg  -0.977741 -38.9323 -21.8991
RightLeg  25.4028 -15.4984 -8.09415
RightFoot  -2.99569 -0.688269 9.13608
RightToes  0.000481921 0.542163 -0.142578
Spine  23.742 3.27286 10.0551
Spine1  6.38255 7.65803 -8.30466
HEad  -2.50915 -28.6779 11.4383
LeftShoulder1  6.97073 -12.2155 -38.1883
LeftArm  -8.43373 4.67852 -32.3132
LeftForeArm  -169.16 -57.7551 -165.924
LeftHand  -0.25398 0.0180481 5.50724
RightShoulder  4.66529 10.2246 28.0164
RightArm  -18.9766 33.278 34.3388
RightForeArm  -157.921 69.2799 159.003
RightHand  0.00139858 4.05626 -0.339419
LeftUpLeg  -15.3069 4.3938 -3.15791
LeftLeg  18.8977 -9.20669 -3.17384
LeftFoot  -0.819729 0.565755 -6.09113
LeftToes  1.06245e-005 4.65869e-005 -8.65517e-006
865
root  9.49063 39.4147 11.1984 172.53 54.0315 175.82
RightUpLeg  1.62523 -39.7914 -22.4528
RightLeg  24.3597 -15.8116 -7.89405
RightFoot  -3.35345 -0.716955 9.91888
RightToes  0.000481921 0.542163 -0.142578
Spine  22.408 3.86592 8.78859
Spine1  7.08978 7.18706 -5.01409
HEad  -2.41483 -29.5381 10.1964
LeftShoulder1  6.93245 -11.7221 -39.3173
LeftArm  -7.31505 5.46317 -32.5342
LeftForeArm  -167.61 -56.8355 -166.521
LeftHand  -0.25398 0.0180481 5.50724
RightShoulder  6.22733 10.8552 37.4183
RightArm  -17.3893 22.5082 35.4748
RightForeArm  -159.35 59.8396 165.748
RightHand  0.0679298 2.36615 0.769233
LeftUpLeg  -14.4875 3.18126 -2.3881
LeftLeg  19.0682 -9.3923 -3.27722
LeftFoot  -1.27437 0.5618 -6.29011
LeftToes  1.06245e-005 4.65869e-005 -8.65517e-006
866
root  9.64559 39.3417 11.1938 172.698 52.985 177.1
RightUpLeg  3.61665 -39.9843 -22.9187
RightLeg  24.6143 -16.1745 -8.15293
RightFoot  -3.84915 -0.713612 10.4687
RightToes  0.000481921 0.542163 -0.142578
Spine  21.2478 3.81973 7.42807
Spine1  8.17289 5.99823 -1.48796
HEad  -2.51563 -28.8958 8.22977
LeftShoulder1  6.92023 -11.3919 -40.1937
LeftArm  -7.73038 6.72723 -32.8748
LeftForeArm  -168.159 -55.2451 -167.261
LeftHand  -0.25398 0.0180481 5.50724
RightShoulder  6.63246 10.6631 40.6439
RightArm  -19.6755 15.2514 36.7201
RightForeArm  -168.401 55.531 167.156
RightHand  0.0265023 0.432729 0.442737
LeftUpLeg  -14.2195 1.6108 -1.59248
LeftLeg  20.6896 -8.98818 -3.41274
LeftFoot  -2.21783 0.509987 -6.21902
LeftToes  1.06245e-005 4.65869e-005 -8.65517e-006
867
root  9.66672 39.1826 11.1715 172.284 53.2689 177.956
RightUpLeg  4.03276 -38.6246 -22.8417
RightLeg  26.2102 -16.4848 -8.86184
RightFoot  -4.4993 -0.640152 10.1591
RightToes  0.000481921 0.542163 -0.142578
Spine  20.5219 3.21814 6.50413
Spine1  9.01902 4.80738 0.0299201
HEad  -2.19424 -27.0222 6.93962
LeftShoulder1  6.82495 -11.2079 -40.13
LeftArm  -9.07763 7.83822 -33.1727
LeftForeArm  -169.724 -53.5668 -167.914
LeftHand  -0.25398 0.0180481 5.50724
RightShoulder  6.20905 10.3073 38.8677
RightArm  -22.4949 13.2214 38.8094
RightForeArm  -176.413 55.7199 166.394
RightHand  -0.118967 -0.179185 -2.47664
LeftUpLeg  -14.1478 0.354438 -1.02391
LeftLeg  22.9709 -7.69187 -3.23638
LeftFoot  -3.29745 0.418268 -5.66004
LeftToes  1.06245e-005 4.65869e-005 -8.65517e-006
868
root  9.62355 39.0428 11.1193 171.086 55.2528 177.795
RightUpLeg  3.19793 -36.2515 -22.5383
RightLeg  27.9346 -16.2291 -9.34986
RightFoot  -5.12904 -0.524954 9.00929
RightToes  0.000481921 0.542163 -0.142578
Spine  20.2255 2.57059 6.08473
Spine1  9.00699 4.31372 -0.975062
HEad  -0.658411 -24.9768 6.82952
LeftShoulder1  6.6779 -11.1312 -39.4093
LeftArm  -10.1025 7.83616 -33.2054
LeftForeArm  -171.219 -52.3379 -168.336
LeftHand  -0.25398 0.0180481 5.50724
RightShoulder  5.67726 9.94759 36.2217
RightArm  -24.0931 15.4414 39.7302
RightForeArm  176.511 58.5536 164.273
RightHand  -0.344661 0.433489 -6.92733
LeftUpLeg  -13.6792 -0.17302 -0.955321
LeftLeg  24.543 -5.56311 -2.44282
LeftFoot  -4.09987 0.32257 -4.70956
LeftToes  1.06245e-005 4.65869e-005 -8.65517e-006
869
root  9.57275 39.0179 11.039 169.413 58.3895 176.911
RightUpLeg  2.3945 -33.8885 -22.3258
RightLeg  28.2883 -15.3509 -9.00388
RightFoot  -5.34765 -0.447618 7.84984
RightToes  0.000481921 0.542163 -0.142578
Spine  20.1849 2.20674 6.27076
Spine1  8.3364 4.55449 -3.24722
HEad  1.82343 -23.435 7.2133
LeftShoulder1  6.61529 -11.2029 -38.7924
LeftArm  -10.1948 6.25827 -33.1563
LeftForeArm  -172.795 -51.8838 -168.413
LeftHand  -0.25398 0.0180481 5.50724
RightShoulder  5.31035 9.6206 34.5093
RightArm  -24.6035 19.3759 39.6055
RightForeArm  171.524 61.4057 162.006
RightHand  -0.503427 0.905742 -9.44505
LeftUpLeg  -12.5104 0.0146156 -1.10616
LeftLeg  24.7418 -3.0857 -1.2257
LeftFoot  -4.49091 0.260151 -3.90097
LeftToes  1.06245e-005 4.65869e-005 -8.65517e-006
870
root  9.54605 39.1297 10.9589 168.27 61.7851 176.258
RightUpLeg  2.25327 -32.4132 -21.9442
RightLeg  26.749 -14.0125 -7.79278
RightFoot  -4.94184 -0.448939 7.41437
RightToes  0.000481921 0.542163 -0.142578
Spine  19.8864 2.06608 6.85407
Spine1  7.78717 4.94754 -5.10491
HEad  4.14211 -21.9463 7.24469
LeftShoulder1  6.65183 -11.3945 -38.4744
LeftArm  -9.70788 3.73104 -33.7683
LeftForeArm  -173.818 -51.9247 -168.324
LeftHand  -0.25398 0.0180481 5.50724
RightShoulder  5.00408 9.37488 32.9133
RightArm  -24.2702 22.8602 40.3384
RightForeArm  171.934 62.5531 161.195
RightHand  -0.463726 0.722203 -8.89236
LeftUpLeg  -11.0378 0.845228 -0.881417
LeftLeg  23.7761 -1.04055 -0.172627
LeftFoot  -4.54587 0.252946 -3.79621
LeftToes  1.06245e-005 4.65869e-005 -8.65517e-006
